# xmcd
#
# Track frame offsets:
#	150
#	18807
#	29267
#	41640
#	55517
#	72765
#	76792
#	103937
#	118337
#	125402
#	140565
#	147220
#	161370
#
# Disc length: 2521 seconds
#
# Revision: 0
# Processed by: cddbd v1.5.2PL0 Copyright (c) Steve Scherf et al.
# Submitted via: EasyCDDAExtractor 16.0.8.2
#
DISCID=a909d70d
DTITLE=Συλλογικός δίσκος - Τραγ. από χαμένες πατρίδες 3 Μικρά Ασία
DYEAR=2004
DGENRE=Παραδοσιακή
TTITLE0=Άγνωστος - Από ξένο τόπο [παραδοσιακό]
TTITLE1=Άγνωστος - Σε καινούργια βάρκα [παραδοσιακό]
TTITLE2=Άνευ ερμηνευτού - Χορός της Σεβάστειας [οργανικό, παραδοσιακό]
TTITLE3=Άγνωστος - Μάνα, ήρτεν η άνοιξη [παραδοσιακό]
TTITLE4=Άγνωστος - Κωνσταντινιά [παραδοσιακό]
TTITLE5=Άνευ ερμηνευτού - Αυτοσχεδιασμός 1 [παραδοσιακό]
TTITLE6=Άγνωστος - Άϊντε κι ας ρεμπελέψουμε [παραδοσιακό]
TTITLE7=Άγνωστος - Ερηνάκι [παραδοσιακό]
TTITLE8=Άνευ ερμηνευτού - Επτάσημος χορός Μικράς Ασίας [οργ., παραδ.]
TTITLE9=Άγνωστος - Αυτά τα μαύρα δέντρα [παραδοσιακό]
TTITLE10=Άνευ ερμηνευτού - Αυτοσχεδιασμός 2 [παραδοσιακό]
TTITLE11=Άγνωστος - Ω, ψυχή μου και φως μου [παραδοσιακό]
TTITLE12=Άνευ ερμηνευτού - Σαν πας στα ξένα [παραδοσιακό]
EXTD=
EXTT0=
EXTT1=
EXTT2=
EXTT3=
EXTT4=
EXTT5=
EXTT6=
EXTT7=
EXTT8=
EXTT9=
EXTT10=
EXTT11=
EXTT12=
PLAYORDER=
